<svg xmlns="http://www.w3.org/2000/svg" viewBox="0 0 128 128">
  <defs>
    <linearGradient id="skyArc" x1="16" x2="108" y1="106" y2="18" gradientUnits="userSpaceOnUse">
      <stop offset="0" stop-color="#062a63"/>
      <stop offset=".48" stop-color="#0b7de3"/>
      <stop offset="1" stop-color="#4fd8f7"/>
    </linearGradient>
    <linearGradient id="sun" x1="74" x2="105" y1="36" y2="74" gradientUnits="userSpaceOnUse">
      <stop offset="0" stop-color="#fff07a"/>
      <stop offset=".48" stop-color="#ffc327"/>
      <stop offset="1" stop-color="#ff9411"/>
    </linearGradient>
    <linearGradient id="cloud" x1="24" x2="85" y1="53" y2="90" gradientUnits="userSpaceOnUse">
      <stop offset="0" stop-color="#ffffff"/>
      <stop offset=".55" stop-color="#dfeeff"/>
      <stop offset="1" stop-color="#8ebdf2"/>
    </linearGradient>
    <linearGradient id="wind" x1="42" x2="113" y1="101" y2="61" gradientUnits="userSpaceOnUse">
      <stop offset="0" stop-color="#0849c7"/>
      <stop offset=".52" stop-color="#0788ef"/>
      <stop offset="1" stop-color="#21d7f4"/>
    </linearGradient>
  </defs>
  <path fill="url(#skyArc)" d="M66.2 13.7c29.1 0 52.7 22.2 52.7 49.6 0 11.9-4.5 22.8-11.9 31.3-9.7 11-24.4 18.3-40.8 18.3-29.1 0-52.7-22.2-52.7-49.6S37.1 13.7 66.2 13.7Z"/>
  <path fill="#053274" opacity=".45" d="M63.7 18.9c-18.9 7.2-32 24.5-32 44.4 0 20.4 13.8 38.1 33.4 45.1-27.7-.5-50-20.9-50-46.1 0-24.5 21-44.5 48.6-43.4Z"/>
  <circle cx="84.5" cy="52.2" r="23.6" fill="url(#sun)"/>
  <path fill="#fff" opacity=".86" d="M100.5 73.2c8.9-2.1 16.4-7.1 21.6-13.8-2.6 11.3-10.5 20.9-21.4 26.6l-.2-12.8Z"/>
  <path fill="url(#cloud)" d="M28.2 82.1c-6.8 0-12.3-5.3-12.3-11.8 0-6 4.7-11 10.8-11.7 2.2-7.6 9.4-13.1 17.8-13.1 4.2 0 8.1 1.4 11.2 3.7 4-8.3 12.8-14.1 23-14.1 12.5 0 22.8 8.7 24.6 20 8.5.4 15.3 7.1 15.3 15.3 0 6.5-4.2 12.1-10.1 14.3-2.2.8-5.3 1-8 1H28.2v-3.6Z"/>
  <path fill="#5f95d9" opacity=".3" d="M20.5 75.1c14.5 4.3 55.5 7.1 95.3-1.6-1.4 6.6-7.3 11.7-14.6 12.2H28.2c-3.5 0-6.3-.9-7.7-10.6Z"/>
  <path fill="#fff" d="M42.7 106.9c13.4-3.7 23.9-9.1 31.6-16 6.7-6.1 13.1-10.9 24.1-11.8 7.9-.7 15.6-2.7 23.4-6.8-5.3 7.8-14.3 12.9-27 15.3-8.4 1.6-15.7 5-21.1 10-6.5 6.1-17.4 10-31 9.3Z"/>
  <path fill="url(#wind)" d="M44.7 108.6c10.4-3.9 20.2-8.4 27.6-14.7 8.1-6.8 15.4-10.7 27.4-12 8.6-.9 15.1-3.2 22.3-7.4-2 7.4-9.9 14.2-22.5 17.3-11.5 2.8-20.2 4.1-28 10.4-7.1 5.7-16.5 7.8-26.8 6.4Z"/>
  <path fill="url(#wind)" d="M68 101.7c9.5-1.3 18.6-.7 26.5 1.8 7.6 2.5 13.1 6.5 15.8 11.5-10.7 1.6-24.3-1.7-38.3-8.7-4.5-2.2-5.9-3.8-4-4.6Z"/>
</svg>
